<?xml version="1.0" encoding="UTF-8"?>
<svg version="1.1"  xmlns="http://www.w3.org/2000/svg" xmlns:xlink="http://www.w3.org/1999/xlink" viewBox="0 0 100 100">
<path style="fill: #FFFFFF" d="M63.6,48c-4.4,0-7.9,3.9-7.9,8.7s3.5,8.7,7.9,8.7s7.7-3.9,7.9-8.7S67.9,48,63.6,48z"/>
<path style="fill: #FFFFFF" d="M36.4,48c-4.4,0-7.9,3.9-7.9,8.7s3.5,8.7,7.9,8.7s7.7-3.9,7.9-8.7S40.9,48,36.4,48z"/>
<path style="fill: #FFFFFF" d="M59.7,0H0v59.7C0,81.9,18.1,100,40.3,100H100V40.3C100,18.1,81.9,0,59.7,0z M83.7,72.8c0,0-7.6,5.3-33.7,5.3
	s-33.7-5.4-33.7-5.4c-9.7-4.9-10.1-17-10.1-17.2c0-0.2,0.1-0.4,0.3-0.5c0.2-0.2,0.4-0.3,0.7-0.2l5.8,1.3c-1.6-4-4.7-15,3.9-23.8
	c0.2-0.2,0.4-0.3,0.7-0.3c0.3,0.1,0.5,0.3,0.6,0.4l2.9,4.9c1.9-4.1,8-15.3,19.1-15.7c0.2,0,0.5,0.1,0.7,0.3c0.1,0.3,0.2,0.5,0,0.8
	c-0.7,1.4-1.1,4.5-1.3,7.1c1.8-2,5.3-4.8,10.3-4.8c5,0,8.4,2.7,10.3,4.8c-0.2-2.5-0.6-5.7-1.3-7.1c-0.2-0.3-0.2-0.5,0-0.8
	c0.2-0.2,0.5-0.3,0.7-0.3c11,0.3,17.1,11.5,19.1,15.7l2.9-4.9c0.2-0.3,0.4-0.4,0.6-0.4c0.3,0,0.5,0.1,0.7,0.3
	c8.8,8.8,5.6,19.9,4,23.8l5.9-1.4c0.3,0,0.5,0,0.7,0.2c0.2,0.2,0.3,0.4,0.3,0.6C93.8,55.8,93.4,67.9,83.7,72.8z"/>
</svg>

