<?xml version="1.0" encoding="UTF-8"?>
<svg xmlns="http://www.w3.org/2000/svg" viewBox="0 0 100 100">
  <defs>
    <style>.icon-fill{fill:#fff;}</style>
  </defs>
  <path class="icon-fill" d="M40.02,46.26c-3.03,0-5.39,2.71-5.39,6.01s2.44,5.99,5.4,5.99,5.35-2.69,5.4-5.99c.05-3.3-2.37-6.01-5.41-6.01Z" />
  <path class="icon-fill" d="M59.97,46.26c-3.04,0-5.4,2.71-5.4,6.01s2.44,5.99,5.4,5.99,5.34-2.69,5.39-5.99c.05-3.3-2.35-6.01-5.39-6.01Z" />
  <path class="icon-fill" d="M96.53,66.37l-8-1.41c11.06-5.6,11.46-19.46,11.47-19.61,0-.28-.12-.55-.34-.73-.22-.18-.52-.24-.79-.18l-6.64,1.55c1.82-4.55,5.45-17.11-4.55-27.16-.2-.2-.48-.31-.77-.26-.28,.04-.53,.2-.68,.45l-3.29,5.62c-2.16-4.76-9.15-17.58-21.79-17.86-.22-.02-.63,.15-.8,.43-.17,.27-.19,.62-.04,.91,.81,1.59,1.29,5.28,1.52,8.13-2.16-2.35-6.14-5.54-11.85-5.54s-9.69,3.19-11.85,5.54c.24-2.85,.71-6.54,1.52-8.13,.15-.29,.13-.63-.04-.91-.17-.28-.57-.45-.8-.43-12.64,.28-19.63,13.1-21.79,17.86l-3.28-5.62c-.14-.25-.39-.41-.68-.45-.29-.03-.57,.06-.77,.26-10,10.05-6.37,22.61-4.55,27.16l-6.64-1.55c-.27-.06-.56,0-.79,.18-.22,.18-.35,.45-.34,.73,0,.15,.41,14,11.47,19.61l-8,1.41c-.25,.04-.47,.19-.61,.4-.14,.21-.18,.47-.12,.72,.03,.13,3.39,13.01,18.21,13.48l-3.88,4.71c-.29,.35-.28,.86,.02,1.19,3.68,4.12,9.12,6.36,15.28,6.36,1.15,0,2.33-.08,3.52-.23,6.03-.8,11.55-3.58,14.11-6.97,2.56,3.4,8.08,6.17,14.11,6.97,7.56,1,14.43-1.23,18.79-6.12,.3-.34,.31-.84,.02-1.19l-3.87-4.71c14.82-.47,18.18-13.34,18.21-13.48,.06-.25,.02-.51-.12-.72-.14-.21-.36-.36-.61-.4Zm-16.79-1.25c-4.59,3.39-9.73,5.97-15.19,7.62-1.23-1.65-2.32-3.4-3.25-5.24,1.78-.66,3.49-1.48,5.13-2.45-.42-.29-.84-.61-1.26-.94-9.61,4.52-20.74,4.52-30.35,0-.41,.31-.83,.63-1.26,.94,1.63,.96,3.35,1.78,5.12,2.44-.93,1.84-2.02,3.59-3.25,5.24-5.46-1.65-10.59-4.23-15.18-7.62-1.06-11.14,1.06-22.44,8.9-34.03,3.95-1.81,8.11-3.09,12.39-3.82,.58,1.05,1.11,2.12,1.59,3.22,4.55-.69,9.18-.69,13.74,0,.47-1.1,1-2.18,1.59-3.22,4.27,.72,8.44,2,12.38,3.81,6.79,9.93,10.17,21.13,8.92,34.05Z" />
</svg>
