<?xml version="1.0" standalone="no"?>
<!DOCTYPE svg PUBLIC "-//W3C//DTD SVG 20010904//EN" "http://www.w3.org/TR/2001/REC-SVG-20010904/DTD/svg10.dtd">
<svg version="1.0" xmlns="http://www.w3.org/2000/svg"
  width="700.000000pt" height="700.000000pt" viewBox="0 0 700.000000 700.000000"
  preserveAspectRatio="xMidYMid meet">
  <g transform="translate(0.000000,700.000000) scale(0.100000,-0.100000)"
    fill="#000000" stroke="none">
    <path d="M2585 6519 c-369 -49 -729 -272 -1015 -628 -36 -44 -155 -211 -177
-246 -83 -137 -116 -193 -153 -267 -25 -49 -48 -88 -51 -88 -6 0 -132 206
-174 285 -94 173 -118 172 -266 -11 -170 -208 -274 -428 -330 -694 -18 -87
-22 -139 -23 -300 -1 -259 7 -319 78 -600 2 -8 18 -55 34 -103 26 -74 28 -87
14 -83 -34 8 -111 26 -284 65 -232 53 -247 48 -233 -82 13 -116 15 -132 26
-182 50 -233 90 -351 180 -525 124 -240 303 -434 516 -558 67 -40 76 -52 41
-53 -13 0 -30 -2 -38 -4 -8 -2 -67 -13 -130 -24 -63 -11 -128 -22 -145 -25
-16 -4 -46 -9 -65 -12 -19 -2 -46 -7 -60 -10 -14 -2 -38 -7 -55 -9 -44 -8 -73
-25 -79 -47 -16 -62 129 -356 243 -493 51 -61 178 -182 231 -222 160 -117 382
-213 551 -238 24 -4 46 -8 49 -10 3 -2 48 -7 100 -10 52 -4 96 -8 97 -9 1 -1
-10 -15 -25 -32 -127 -145 -258 -314 -264 -339 -7 -28 -1 -36 78 -112 256
-248 606 -381 1000 -380 185 0 323 16 476 56 285 74 529 204 692 369 l68 69
67 -66 c36 -37 84 -80 106 -97 22 -16 42 -31 45 -34 12 -12 132 -81 205 -118
127 -63 358 -137 488 -156 20 -4 52 -8 70 -11 81 -12 141 -16 267 -15 74 0
146 2 160 4 14 3 59 10 100 16 290 46 545 173 748 372 79 79 80 93 7 184 -166
208 -222 279 -221 281 1 1 32 4 69 8 208 17 375 62 541 146 215 109 410 294
537 511 47 81 97 194 115 263 22 82 4 95 -171 121 -22 3 -92 15 -155 26 -63
11 -124 22 -136 23 -11 2 -47 8 -79 15 l-59 12 29 15 c111 56 196 121 315 243
109 110 187 221 264 376 45 89 116 274 131 344 28 122 55 271 60 333 6 63 4
82 -9 102 -22 33 -48 32 -194 -4 -64 -16 -160 -39 -212 -51 -52 -12 -103 -24
-113 -27 -16 -4 -17 -2 -7 16 27 52 89 273 110 391 6 36 13 76 16 90 2 14 7
66 10 115 34 487 -107 905 -419 1241 -60 65 -94 80 -126 58 -10 -7 -59 -81
-107 -164 -49 -83 -94 -158 -99 -168 -6 -9 -19 -32 -29 -51 l-18 -34 -67 129
c-100 193 -140 256 -264 422 -235 315 -518 535 -819 636 -73 24 -87 28 -150
41 -71 14 -88 16 -165 21 -79 5 -83 5 -109 -21 -17 -17 -24 -31 -19 -43 24
-56 55 -159 64 -209 6 -32 13 -69 16 -83 5 -26 11 -74 20 -157 3 -27 8 -68 11
-93 l5 -45 -38 36 c-89 86 -122 113 -199 164 -193 128 -398 187 -624 180 -165
-6 -260 -29 -410 -98 -119 -55 -219 -125 -324 -225 l-59 -57 7 80 c3 44 8 91
10 105 3 14 7 43 10 65 11 89 36 197 61 269 45 131 19 150 -170 125z m377
-1540 l53 -111 55 6 c158 17 244 21 445 21 121 0 247 -4 280 -7 33 -4 87 -10
120 -13 l60 -7 55 109 55 108 35 -3 c133 -12 500 -119 720 -210 l114 -47 54
-80 c102 -154 232 -395 316 -587 20 -44 87 -219 91 -233 1 -5 5 -17 8 -25 10
-27 47 -146 52 -166 2 -10 10 -44 19 -74 15 -56 40 -176 51 -240 3 -19 10 -60
15 -90 13 -75 18 -118 27 -240 8 -112 8 -538 0 -580 -3 -14 -6 -35 -6 -47 -2
-40 -327 -245 -588 -369 -73 -35 -136 -64 -139 -64 -3 0 -20 -7 -37 -15 -38
-17 -299 -106 -302 -103 -1 2 -17 26 -37 53 -39 54 -102 156 -154 248 l-33 58
72 32 c127 56 272 132 271 142 0 6 -18 22 -40 37 l-39 26 -36 -19 c-171 -87
-509 -178 -764 -206 -88 -10 -454 -10 -517 0 -27 4 -69 10 -95 13 -188 23
-409 86 -679 195 -29 12 -35 10 -73 -18 -31 -23 -38 -33 -29 -40 35 -28 279
-143 302 -143 7 0 17 -5 24 -12 8 -8 2 -27 -25 -77 -33 -60 -181 -291 -186
-291 -6 0 -259 91 -302 108 -114 46 -314 141 -321 154 -3 5 -9 6 -14 3 -4 -3
-13 2 -20 10 -7 8 -16 15 -21 15 -29 0 -385 234 -386 254 -1 6 -4 63 -9 126
-12 185 -7 491 11 602 2 13 6 46 10 73 10 83 15 119 20 141 3 12 7 39 11 60
11 71 82 337 120 449 95 282 262 620 429 868 32 47 43 54 137 95 197 84 542
188 693 207 28 4 52 9 54 11 12 12 24 -6 73 -107z" />
    <path d="M2699 3742 c-69 -23 -137 -69 -177 -119 -172 -219 -110 -549 126
-665 57 -28 78 -33 149 -35 76 -1 87 2 155 35 246 124 302 494 104 693 -90 91
-240 129 -357 91z" />
    <path d="M4120 3750 c-110 -32 -203 -111 -251 -215 -37 -78 -43 -107 -43 -205
1 -165 84 -304 222 -372 57 -28 78 -33 147 -34 68 -2 89 2 142 26 239 109 317
456 149 663 -49 61 -121 112 -179 128 -51 15 -153 19 -187 9z" />
  </g>
</svg>
