<?xml version="1.0" standalone="no"?>
<!DOCTYPE svg PUBLIC "-//W3C//DTD SVG 20010904//EN"
 "http://www.w3.org/TR/2001/REC-SVG-20010904/DTD/svg10.dtd">
<svg version="1.0" xmlns="http://www.w3.org/2000/svg"
 width="700.000000pt" height="700.000000pt" viewBox="0 0 700.000000 700.000000"
 preserveAspectRatio="xMidYMid meet">
<metadata>
Created by potrace 1.14, written by Peter Selinger 2001-2017
</metadata>
<g transform="translate(0.000000,700.000000) scale(0.100000,-0.100000)"
fill="#000000" stroke="none">
<path d="M3 4783 c2 -1220 6 -2234 10 -2253 6 -32 9 -52 23 -160 3 -19 11 -64
19 -100 8 -36 16 -80 20 -97 3 -18 21 -85 41 -150 82 -273 206 -538 357 -762
46 -69 168 -233 191 -257 6 -6 45 -49 86 -94 65 -73 194 -194 300 -283 18 -15
69 -54 114 -86 351 -253 763 -429 1159 -495 15 -3 35 -7 45 -10 9 -2 44 -8 77
-11 33 -4 92 -10 130 -15 39 -4 1050 -9 2248 -9 l2178 -1 -4 2222 c-3 1993 -5
2234 -19 2328 -9 58 -19 112 -22 120 -3 8 -8 33 -11 55 -8 60 -61 259 -93 355
-64 186 -169 410 -267 569 -50 81 -182 269 -208 296 -7 7 -28 32 -47 56 -70
87 -297 308 -390 379 -18 14 -42 33 -54 44 -64 56 -312 208 -460 281 -227 112
-505 209 -687 239 -19 3 -45 8 -59 11 -14 3 -56 10 -95 15 -38 6 -86 13 -105
17 -19 3 -1035 8 -2258 10 l-2223 4 4 -2218z m2854 685 c16 -16 15 -22 -10
-100 -15 -46 -29 -96 -31 -113 -3 -16 -8 -46 -11 -65 -13 -75 -14 -87 -20
-144 -3 -33 -8 -72 -10 -88 -3 -15 -2 -28 2 -28 5 1 35 26 67 56 134 124 326
223 486 250 59 10 262 11 322 1 171 -28 371 -133 507 -268 l54 -53 -7 79 c-14
160 -40 297 -71 383 -35 97 -23 112 89 106 480 -29 923 -392 1251 -1026 17
-32 32 -58 35 -58 3 0 52 78 108 174 97 165 114 186 148 186 16 0 82 -64 139
-135 22 -28 42 -52 45 -55 3 -3 24 -34 47 -70 114 -179 175 -347 210 -580 8
-58 8 -289 -1 -360 -4 -30 -9 -70 -11 -88 -2 -18 -6 -41 -9 -50 -3 -9 -8 -31
-11 -48 -7 -43 -52 -198 -70 -241 -17 -41 -19 -67 -5 -58 9 6 21 9 75 19 11 2
40 9 65 16 25 7 56 14 70 17 14 2 59 13 102 24 96 24 113 24 136 -2 20 -21 21
-34 7 -149 -29 -249 -137 -538 -273 -728 -53 -74 -173 -201 -242 -254 -57 -44
-196 -126 -280 -166 -237 -111 -769 -231 -1180 -267 -41 -4 -86 -8 -100 -10
-14 -2 -68 -7 -120 -10 -52 -4 -113 -8 -135 -10 -254 -19 -947 -25 -1230 -11
-243 12 -405 23 -475 31 -19 2 -81 9 -137 15 -56 6 -110 12 -120 14 -10 2 -43
7 -73 11 -79 10 -111 14 -145 22 -16 3 -39 7 -51 8 -135 16 -455 100 -653 170
-155 56 -342 170 -467 285 -216 199 -391 565 -428 895 -4 28 -8 67 -11 88 -4
31 0 42 20 63 15 15 32 23 43 20 9 -3 98 -23 198 -45 99 -22 185 -41 190 -43
17 -6 15 13 -16 110 -29 90 -60 221 -76 317 -13 87 -13 370 1 455 21 131 46
232 66 270 4 8 17 42 30 75 12 33 25 65 29 70 4 6 22 37 40 70 69 124 227 315
263 315 29 0 57 -36 154 -202 l98 -166 48 91 c296 573 727 939 1172 993 28 4
51 7 53 9 11 10 94 -3 109 -17z"/>
<path d="M2415 3621 c-91 -26 -163 -69 -236 -141 -120 -120 -182 -271 -182
-450 -1 -328 238 -599 533 -603 47 -1 103 2 125 6 60 11 174 70 232 121 50 45
132 158 155 214 137 339 20 688 -275 824 -103 47 -246 59 -352 29z"/>
<path d="M4328 3625 c-355 -97 -532 -525 -362 -880 97 -203 288 -326 500 -320
91 2 163 23 243 71 233 137 354 476 266 741 -60 179 -190 315 -355 373 -78 27
-221 35 -292 15z"/>
</g>
</svg>
